<svg width="256" height="51" viewBox="0 0 256 51" fill="none" xmlns="http://www.w3.org/2000/svg">
<path d="M15.1952 40.3664C12.3904 40.3664 10.0146 39.833 8.0678 38.7662C6.15396 37.6994 4.5866 36.2713 3.36571 34.4818C2.17781 32.6923 1.31989 30.6619 0.791931 28.3907C0.263977 26.085 0 23.7105 0 21.2672C0 18.9615 0.263977 16.6903 0.791931 14.4534C1.31989 12.2166 2.17781 10.2206 3.36571 8.46559C4.5866 6.71053 6.15396 5.2996 8.0678 4.2328C10.0146 3.13158 12.3904 2.58097 15.1952 2.58097C17.9669 2.58097 20.3097 3.13158 22.2236 4.2328C24.1704 5.2996 25.7378 6.71053 26.9257 8.46559C28.1136 10.2206 28.9715 12.2166 29.4994 14.4534C30.0274 16.6903 30.2914 18.9615 30.2914 21.2672C30.2914 23.7105 30.0274 26.085 29.4994 28.3907C28.9715 30.6619 28.1136 32.6923 26.9257 34.4818C25.7378 36.2713 24.1704 37.6994 22.2236 38.7662C20.3097 39.833 17.9669 40.3664 15.1952 40.3664ZM15.1952 6.50405C13.3143 6.50405 11.6975 6.8998 10.3446 7.6913C9.02472 8.44838 7.93581 9.49798 7.07789 10.8401C6.25296 12.1822 5.64251 13.748 5.24654 15.5374C4.85058 17.3269 4.6526 19.2368 4.6526 21.2672C4.6526 23.2976 4.83408 25.2247 5.19705 27.0486C5.56002 28.8725 6.15397 30.4899 6.97889 31.9008C7.80382 33.2773 8.87623 34.3785 10.1961 35.2045C11.549 36.0304 13.2154 36.4433 15.1952 36.4433C17.142 36.4433 18.7754 36.0304 20.0953 35.2045C21.4481 34.3785 22.5205 33.2773 23.3125 31.9008C24.1374 30.4899 24.7314 28.8725 25.0943 27.0486C25.4573 25.2247 25.6388 23.2976 25.6388 21.2672C25.6388 19.2368 25.4408 17.3269 25.0448 15.5374C24.6489 13.748 24.0219 12.1822 23.164 10.8401C22.3391 9.49798 21.2667 8.44838 19.9468 7.6913C18.6269 6.8998 17.043 6.50405 15.1952 6.50405ZM48.3368 16.2085C47.2809 16.2085 46.1095 16.3978 44.8226 16.7763C43.5358 17.1204 42.3809 17.6366 41.3579 18.3249V39.747H37.2003V12.8016H40.2195L40.962 15.3826C41.5229 14.9008 42.1499 14.4706 42.8428 14.0921C43.5688 13.6792 44.3112 13.335 45.0701 13.0597C45.8621 12.75 46.654 12.5091 47.4459 12.337C48.2379 12.165 49.0133 12.0789 49.7722 12.0789C50.4982 12.0789 51.0426 12.1306 51.4056 12.2338L50.8116 16.5182C50.4487 16.415 50.0692 16.3462 49.6732 16.3117C49.2773 16.2429 48.8318 16.2085 48.3368 16.2085ZM54.0772 32.417C54.0772 29.6296 54.9351 27.5304 56.651 26.1194C58.3998 24.7085 60.9571 24.003 64.3228 24.003H69.5199V21.7834C69.5199 19.6154 69.0744 18.084 68.1835 17.1893C67.2925 16.2601 65.9727 15.7955 64.2238 15.7955C63.0029 15.7955 61.749 15.9676 60.4621 16.3117C59.1752 16.6559 58.0038 17.086 56.9479 17.6022L55.7105 14.5567C57.0304 13.7652 58.4328 13.163 59.9177 12.75C61.4356 12.3026 62.9039 12.0789 64.3228 12.0789C67.4245 12.0789 69.7343 12.8704 71.2522 14.4534C72.7701 16.0364 73.529 18.5486 73.529 21.9899V39.747H70.4603L69.9653 36.753C68.6784 37.8543 67.2595 38.6974 65.7087 39.2824C64.1908 39.8674 62.7719 40.1599 61.452 40.1599C59.1423 40.1599 57.3274 39.4717 56.0075 38.0951C54.7206 36.753 54.0772 34.8603 54.0772 32.417ZM62.1945 36.6498C62.7884 36.6498 63.4154 36.581 64.0753 36.4433C64.7683 36.2713 65.4447 36.0476 66.1046 35.7723C66.7646 35.497 67.3915 35.17 67.9855 34.7915C68.5794 34.413 69.0909 34 69.5199 33.5526V27.0486H64.8673C62.4915 27.0486 60.7591 27.4787 59.6702 28.3391C58.5813 29.165 58.0368 30.4555 58.0368 32.2105C58.0368 33.6559 58.3833 34.7571 59.0763 35.5142C59.8022 36.2713 60.8416 36.6498 62.1945 36.6498ZM81.7174 12.8016H84.7366L85.4296 15.1761C86.6505 14.2814 88.0529 13.5415 89.6367 12.9565C91.2206 12.3715 92.7549 12.0789 94.2398 12.0789C97.1436 12.0789 99.3049 12.9393 100.724 14.6599C102.143 16.3806 102.852 18.8583 102.852 22.0931V39.747H98.6944V22.1447C98.6944 20.0455 98.282 18.4798 97.457 17.4474C96.6651 16.3806 95.2297 15.8472 93.1509 15.8472C92.59 15.8472 91.9795 15.916 91.3196 16.0536C90.6926 16.1569 90.0492 16.3117 89.3892 16.5182C88.7623 16.7247 88.1353 16.9656 87.5084 17.2409C86.9145 17.4818 86.37 17.7399 85.875 18.0152V39.747H81.7174V12.8016ZM120.216 29.7328C119.292 29.7328 118.434 29.664 117.642 29.5263C116.883 29.3887 116.141 29.1822 115.415 28.9069C114.491 30.0081 114.029 31.1093 114.029 32.2105C114.029 33.2085 114.326 33.9484 114.92 34.4302C115.514 34.8775 116.52 35.1012 117.939 35.1012H123.285C125.924 35.1012 127.987 35.7206 129.472 36.9595C130.99 38.2328 131.748 39.9534 131.748 42.1215C131.748 44.9777 130.693 47.163 128.581 48.6771C126.502 50.2257 123.516 51 119.622 51C117.84 51 116.306 50.8107 115.019 50.4322C113.732 50.0881 112.676 49.5891 111.851 48.9352C111.026 48.3158 110.416 47.5759 110.02 46.7156C109.624 45.8897 109.426 44.9777 109.426 43.9798C109.426 41.4676 110.416 39.2824 112.396 37.4241C111.01 36.4605 110.317 35.1184 110.317 33.3978C110.317 32.3998 110.531 31.419 110.96 30.4555C111.389 29.4919 112.082 28.5628 113.039 27.668C111.059 26.1194 110.069 23.8998 110.069 21.0091C110.069 18.2217 110.96 16.0364 112.742 14.4534C114.557 12.8704 117.048 12.0789 120.216 12.0789C121.635 12.0789 122.806 12.2166 123.73 12.4919C124.654 12.7672 125.545 13.163 126.403 13.6792L130.462 9.70446L132.788 13.9372L128.333 15.3826C129.719 16.9312 130.412 18.8239 130.412 21.0607C130.412 23.7449 129.488 25.8613 127.64 27.4099C125.826 28.9585 123.351 29.7328 120.216 29.7328ZM117.098 38.6113C116.24 38.6113 115.53 38.5425 114.969 38.4049C114.31 39.1964 113.848 39.9534 113.584 40.6761C113.32 41.3988 113.188 42.1559 113.188 42.9474C113.188 46.0445 115.448 47.5931 119.969 47.5931C122.377 47.5931 124.275 47.163 125.661 46.3026C127.079 45.4423 127.789 44.2379 127.789 42.6893C127.789 41.416 127.36 40.418 126.502 39.6953C125.677 38.9727 124.423 38.6113 122.74 38.6113H117.098ZM120.265 26.3259C124.39 26.3259 126.452 24.5536 126.452 21.0091C126.452 17.3269 124.374 15.4858 120.216 15.4858C116.091 15.4858 114.029 17.3269 114.029 21.0091C114.029 24.5536 116.108 26.3259 120.265 26.3259ZM158.381 39.747H155.263L154.768 36.6498C153.745 37.7166 152.508 38.5769 151.056 39.2308C149.604 39.919 148.004 40.2632 146.255 40.2632C143.186 40.2632 140.959 39.3856 139.573 37.6306C138.187 35.9099 137.494 33.5354 137.494 30.5071V12.8016H141.751V30.4038C141.751 32.3654 142.163 33.8796 142.988 34.9464C143.846 35.9787 145.281 36.4949 147.294 36.4949C148.746 36.4949 150.083 36.168 151.303 35.5142C152.557 34.8603 153.514 34.2065 154.174 33.5526V12.8016H158.381V39.747ZM174.118 39.747V9.13664H163.477V3.20041H191.986V9.13664H181.345V39.747H174.118ZM191.537 31.9008C191.537 29.0101 192.444 26.8421 194.259 25.3968C196.107 23.917 198.813 23.1771 202.376 23.1771H206.534V22.248C206.534 21.4909 206.468 20.8198 206.336 20.2348C206.204 19.6498 205.957 19.168 205.594 18.7895C205.231 18.3765 204.736 18.0668 204.109 17.8603C203.515 17.6538 202.723 17.5506 201.733 17.5506C200.512 17.5506 199.324 17.6883 198.169 17.9636C197.047 18.2389 195.892 18.7034 194.705 19.3573L192.873 14.6083C194.127 13.7136 195.612 13.0081 197.328 12.4919C199.077 11.9757 200.809 11.7176 202.525 11.7176C205.891 11.7176 208.431 12.5779 210.147 14.2986C211.863 16.0192 212.721 18.6518 212.721 22.1964V39.747H208.068L207.326 37.4241C205.973 38.5253 204.604 39.2996 203.218 39.747C201.865 40.2287 200.611 40.4696 199.456 40.4696C196.882 40.4696 194.919 39.7126 193.566 38.1984C192.213 36.7186 191.537 34.6194 191.537 31.9008ZM200.793 35.1012C201.947 35.1012 203.036 34.8775 204.059 34.4302C205.115 33.9828 205.94 33.4838 206.534 32.9332V27.6164H202.97C199.341 27.6164 197.526 29.0273 197.526 31.8492C197.526 32.8472 197.79 33.6387 198.318 34.2237C198.879 34.8087 199.704 35.1012 200.793 35.1012ZM226.287 39.747H219.654V1.23887L226.287 0V39.747ZM246.992 25.2935L256 36.5466L251.001 40.6761L240.062 26.6872V39.747H233.43V1.23887L240.062 0V25.0354L250.061 10.8917L255.01 14.5051L246.992 25.2935Z" fill="#3C1D1E"/>
</svg>
