<svg width="370" height="126" viewBox="0 0 370 126" fill="none" xmlns="http://www.w3.org/2000/svg">
<rect width="370" height="126" rx="36" fill="#3C1D1E"/>
<path d="M55.597 83.5914C52.197 83.5914 49.317 82.9714 46.957 81.7314C44.637 80.4914 42.737 78.8314 41.257 76.7514C39.817 74.6714 38.777 72.3114 38.137 69.6714C37.497 66.9914 37.177 64.2314 37.177 61.3914C37.177 58.7114 37.497 56.0714 38.137 53.4714C38.777 50.8714 39.817 48.5514 41.257 46.5114C42.737 44.4714 44.637 42.8314 46.957 41.5914C49.317 40.3114 52.197 39.6714 55.597 39.6714C58.957 39.6714 61.797 40.3114 64.117 41.5914C66.477 42.8314 68.377 44.4714 69.817 46.5114C71.257 48.5514 72.297 50.8714 72.937 53.4714C73.577 56.0714 73.897 58.7114 73.897 61.3914C73.897 64.2314 73.577 66.9914 72.937 69.6714C72.297 72.3114 71.257 74.6714 69.817 76.7514C68.377 78.8314 66.477 80.4914 64.117 81.7314C61.797 82.9714 58.957 83.5914 55.597 83.5914ZM55.597 44.2314C53.317 44.2314 51.357 44.6914 49.717 45.6114C48.117 46.4914 46.797 47.7114 45.757 49.2714C44.757 50.8314 44.017 52.6514 43.537 54.7314C43.057 56.8114 42.817 59.0314 42.817 61.3914C42.817 63.7514 43.037 65.9914 43.477 68.1114C43.917 70.2314 44.637 72.1114 45.637 73.7514C46.637 75.3514 47.937 76.6314 49.537 77.5914C51.177 78.5514 53.197 79.0314 55.597 79.0314C57.957 79.0314 59.937 78.5514 61.537 77.5914C63.177 76.6314 64.477 75.3514 65.437 73.7514C66.437 72.1114 67.157 70.2314 67.597 68.1114C68.037 65.9914 68.257 63.7514 68.257 61.3914C68.257 59.0314 68.017 56.8114 67.537 54.7314C67.057 52.6514 66.297 50.8314 65.257 49.2714C64.257 47.7114 62.957 46.4914 61.357 45.6114C59.757 44.6914 57.837 44.2314 55.597 44.2314ZM95.7722 55.5114C94.4922 55.5114 93.0722 55.7314 91.5122 56.1714C89.9522 56.5714 88.5522 57.1714 87.3122 57.9714V82.8714H82.2722V51.5514H85.9322L86.8322 54.5514C87.5122 53.9914 88.2722 53.4914 89.1122 53.0514C89.9922 52.5714 90.8922 52.1714 91.8122 51.8514C92.7722 51.4914 93.7322 51.2114 94.6922 51.0114C95.6522 50.8114 96.5922 50.7114 97.5122 50.7114C98.3922 50.7114 99.0522 50.7714 99.4922 50.8914L98.7722 55.8714C98.3322 55.7514 97.8722 55.6714 97.3922 55.6314C96.9122 55.5514 96.3722 55.5114 95.7722 55.5114ZM102.731 74.3514C102.731 71.1114 103.771 68.6714 105.851 67.0314C107.971 65.3914 111.071 64.5714 115.151 64.5714H121.451V61.9914C121.451 59.4714 120.911 57.6914 119.831 56.6514C118.751 55.5714 117.151 55.0314 115.031 55.0314C113.551 55.0314 112.031 55.2314 110.471 55.6314C108.911 56.0314 107.491 56.5314 106.211 57.1314L104.711 53.5914C106.311 52.6714 108.011 51.9714 109.811 51.4914C111.651 50.9714 113.431 50.7114 115.151 50.7114C118.911 50.7114 121.711 51.6314 123.551 53.4714C125.391 55.3114 126.311 58.2314 126.311 62.2314V82.8714H122.591L121.991 79.3914C120.431 80.6714 118.711 81.6514 116.831 82.3314C114.991 83.0114 113.271 83.3514 111.671 83.3514C108.871 83.3514 106.671 82.5514 105.071 80.9514C103.511 79.3914 102.731 77.1914 102.731 74.3514ZM112.571 79.2714C113.291 79.2714 114.051 79.1914 114.851 79.0314C115.691 78.8314 116.511 78.5714 117.311 78.2514C118.111 77.9314 118.871 77.5514 119.591 77.1114C120.311 76.6714 120.931 76.1914 121.451 75.6714V68.1114H115.811C112.931 68.1114 110.831 68.6114 109.511 69.6114C108.191 70.5714 107.531 72.0714 107.531 74.1114C107.531 75.7914 107.951 77.0714 108.791 77.9514C109.671 78.8314 110.931 79.2714 112.571 79.2714ZM136.237 51.5514H139.897L140.737 54.3114C142.217 53.2714 143.917 52.4114 145.837 51.7314C147.757 51.0514 149.617 50.7114 151.417 50.7114C154.937 50.7114 157.557 51.7114 159.277 53.7114C160.997 55.7114 161.857 58.5914 161.857 62.3514V82.8714H156.817V62.4114C156.817 59.9714 156.317 58.1514 155.317 56.9514C154.357 55.7114 152.617 55.0914 150.097 55.0914C149.417 55.0914 148.677 55.1714 147.877 55.3314C147.117 55.4514 146.337 55.6314 145.537 55.8714C144.777 56.1114 144.017 56.3914 143.257 56.7114C142.537 56.9914 141.877 57.2914 141.277 57.6114V82.8714H136.237V51.5514ZM182.906 71.2314C181.786 71.2314 180.746 71.1514 179.786 70.9914C178.866 70.8314 177.966 70.5914 177.086 70.2714C175.966 71.5514 175.406 72.8314 175.406 74.1114C175.406 75.2714 175.766 76.1314 176.486 76.6914C177.206 77.2114 178.426 77.4714 180.146 77.4714H186.626C189.826 77.4714 192.326 78.1914 194.126 79.6314C195.966 81.1114 196.886 83.1114 196.886 85.6314C196.886 88.9514 195.606 91.4914 193.046 93.2514C190.526 95.0514 186.906 95.9514 182.186 95.9514C180.026 95.9514 178.166 95.7314 176.606 95.2914C175.046 94.8914 173.766 94.3114 172.766 93.5514C171.766 92.8314 171.026 91.9714 170.546 90.9714C170.066 90.0114 169.826 88.9514 169.826 87.7914C169.826 84.8714 171.026 82.3314 173.426 80.1714C171.746 79.0514 170.906 77.4914 170.906 75.4914C170.906 74.3314 171.166 73.1914 171.686 72.0714C172.206 70.9514 173.046 69.8714 174.206 68.8314C171.806 67.0314 170.606 64.4514 170.606 61.0914C170.606 57.8514 171.686 55.3114 173.846 53.4714C176.046 51.6314 179.066 50.7114 182.906 50.7114C184.626 50.7114 186.046 50.8714 187.166 51.1914C188.286 51.5114 189.366 51.9714 190.406 52.5714L195.326 47.9514L198.146 52.8714L192.746 54.5514C194.426 56.3514 195.266 58.5514 195.266 61.1514C195.266 64.2714 194.146 66.7314 191.906 68.5314C189.706 70.3314 186.706 71.2314 182.906 71.2314ZM179.126 81.5514C178.086 81.5514 177.226 81.4714 176.546 81.3114C175.746 82.2314 175.186 83.1114 174.866 83.9514C174.546 84.7914 174.386 85.6714 174.386 86.5914C174.386 90.1914 177.126 91.9914 182.606 91.9914C185.526 91.9914 187.826 91.4914 189.506 90.4914C191.226 89.4914 192.086 88.0914 192.086 86.2914C192.086 84.8114 191.566 83.6514 190.526 82.8114C189.526 81.9714 188.006 81.5514 185.966 81.5514H179.126ZM182.966 67.2714C187.966 67.2714 190.466 65.2114 190.466 61.0914C190.466 56.8114 187.946 54.6714 182.906 54.6714C177.906 54.6714 175.406 56.8114 175.406 61.0914C175.406 65.2114 177.926 67.2714 182.966 67.2714ZM229.171 82.8714H225.391L224.791 79.2714C223.551 80.5114 222.051 81.5114 220.291 82.2714C218.531 83.0714 216.591 83.4714 214.471 83.4714C210.751 83.4714 208.051 82.4514 206.371 80.4114C204.691 78.4114 203.851 75.6514 203.851 72.1314V51.5514H209.011V72.0114C209.011 74.2914 209.511 76.0514 210.511 77.2914C211.551 78.4914 213.291 79.0914 215.731 79.0914C217.491 79.0914 219.111 78.7114 220.591 77.9514C222.111 77.1914 223.271 76.4314 224.071 75.6714V51.5514H229.171V82.8714ZM248.248 82.8714V47.2914H235.348V40.3914H269.908V47.2914H257.008V82.8714H248.248ZM269.363 73.7514C269.363 70.3914 270.463 67.8714 272.663 66.1914C274.903 64.4714 278.183 63.6114 282.503 63.6114H287.543V62.5314C287.543 61.6514 287.463 60.8714 287.303 60.1914C287.143 59.5114 286.843 58.9514 286.403 58.5114C285.963 58.0314 285.363 57.6714 284.603 57.4314C283.883 57.1914 282.923 57.0714 281.723 57.0714C280.243 57.0714 278.803 57.2314 277.403 57.5514C276.043 57.8714 274.643 58.4114 273.203 59.1714L270.983 53.6514C272.503 52.6114 274.303 51.7914 276.383 51.1914C278.503 50.5914 280.603 50.2914 282.683 50.2914C286.763 50.2914 289.843 51.2914 291.923 53.2914C294.003 55.2914 295.043 58.3514 295.043 62.4714V82.8714H289.403L288.503 80.1714C286.863 81.4514 285.203 82.3514 283.523 82.8714C281.883 83.4314 280.363 83.7114 278.963 83.7114C275.843 83.7114 273.463 82.8314 271.823 81.0714C270.183 79.3514 269.363 76.9114 269.363 73.7514ZM280.583 77.4714C281.983 77.4714 283.303 77.2114 284.543 76.6914C285.823 76.1714 286.823 75.5914 287.543 74.9514V68.7714H283.223C278.823 68.7714 276.623 70.4114 276.623 73.6914C276.623 74.8514 276.943 75.7714 277.583 76.4514C278.263 77.1314 279.263 77.4714 280.583 77.4714ZM311.488 82.8714H303.448V38.1114L311.488 36.6714V82.8714ZM336.587 66.0714L347.507 79.1514L341.447 83.9514L328.187 67.6914V82.8714H320.147V38.1114L328.187 36.6714V65.7714L340.307 49.3314L346.307 53.5314L336.587 66.0714Z" fill="#FFE983"/>
</svg>
